<svg id="Layer_1" data-name="Layer 1" xmlns="http://www.w3.org/2000/svg" viewBox="0 0 213.56 37.47"><defs><style>.cls-1{fill:#9f2241;}.cls-2{fill:#bc955c;}.cls-3{fill:none;stroke:#b6b6b6;stroke-width:0.89px;}.cls-4{fill:#b6b6b6;}</style></defs><path class="cls-1" d="M50.5,21.72a1,1,0,0,0,.87.44,1.14,1.14,0,0,0,.87-.51l8.61-11.07a1,1,0,0,1,1.41-.15,1,1,0,0,1,.19,1.34l-1.93,2.47v0a.87.87,0,0,0-.25.65,1,1,0,0,0,.22.62L62.41,18l6.1-7.77L66.08,7.12l-.44-.58a2,2,0,0,0-1.27-.69H60.7a1.9,1.9,0,0,0-1.48.69L48.94,19.72ZM50.07,15l-2.44-3.16a1,1,0,1,1,1.67-1.09l2,2.61,2.39-3.12L51,6.65a1.83,1.83,0,0,0-1.67-.8H46a1.92,1.92,0,0,0-1.53.66l-2.94,3.7,6.1,7.84Z" transform="translate(-0.58 -0.95)"/><path class="cls-1" d="M59.54,17.65a1.06,1.06,0,0,0-.83-.43.9.9,0,0,0-.8.4L49.19,28.84a1.08,1.08,0,0,1-1.48.14,1,1,0,0,1-.11-1.38l2-2.5v0a.87.87,0,0,0,.25-.65,1,1,0,0,0-.22-.62l-1.92-2.47L41.53,29.2,45,33.52l5.37,0L61.14,19.72ZM60,24.37l2.47,3.2A1,1,0,0,1,62.3,29a1,1,0,0,1-1.52-.33L58.71,26l-2.4,3.12,3.49,4.43,5.33,0,3.42-4.39-6.14-7.8ZM68.47,21a1.31,1.31,0,1,1,1.31-1.31A1.3,1.3,0,0,1,68.47,21Zm0-3.77a2.43,2.43,0,1,0,2.47,2.43A2.44,2.44,0,0,0,68.47,17.26ZM55,2.08a1.31,1.31,0,1,1-1.3,1.31A1.32,1.32,0,0,1,55,2.08Zm0,3.78a2.46,2.46,0,1,0-2.47-2.47A2.49,2.49,0,0,0,55,5.86ZM40.19,19.69A1.31,1.31,0,1,1,41.5,21,1.3,1.3,0,0,1,40.19,19.69Zm3.81,0a2.47,2.47,0,1,0-2.47,2.43A2.44,2.44,0,0,0,44,19.69ZM55,37.33A1.31,1.31,0,1,1,56.31,36,1.32,1.32,0,0,1,55,37.33Zm0-3.77A2.43,2.43,0,1,0,57.47,36,2.44,2.44,0,0,0,55,33.56Z" transform="translate(-0.58 -0.95)"/><path class="cls-2" d="M29.12,3.39H.58v19C.58,32.87,14.81,36,14.81,36h0s14.23-3.16,14.23-13.58l0-19Zm-.73.69V22.41a9.93,9.93,0,0,1-2.07,6.1,15.44,15.44,0,0,1-4.68,4,25.33,25.33,0,0,1-6.83,2.76A27.84,27.84,0,0,1,8,32.5a15.69,15.69,0,0,1-4.68-4,9.93,9.93,0,0,1-2.07-6.1V4.08Z" transform="translate(-0.58 -0.95)"/><path class="cls-2" d="M18.3,9.49V7.74H16.52V9.38h-.69V7.74H14V9.38h-.69V7.74H11.47V9.49L12.38,11a.3.3,0,0,1,0,.18v8h.87V16.31A1.53,1.53,0,0,1,14.89,15a1.5,1.5,0,0,1,1.59,1.31v2.87h.91V11.23c0-.07,0-.11.07-.18Zm-6.65,9.87V16.71l-.29.22a.28.28,0,0,1-.36,0l-.4-.25v0l0,1a.35.35,0,0,1-.15.26s.07,0,.11.07a1.24,1.24,0,0,1,.4,1.34Z" transform="translate(-0.58 -0.95)"/><path class="cls-2" d="M14.81,15.73a.9.9,0,0,0-.9.58v2.87h1.81V16.31c0-.22-.36-.58-.91-.58Z" transform="translate(-0.58 -0.95)"/><path class="cls-2" d="M4.14,19.36a2.22,2.22,0,0,1-.22-.8,4.57,4.57,0,0,1-.07-1.09.39.39,0,0,1,.25-.32l.76-.22L4,16.31A.32.32,0,0,1,3.85,16V15A.39.39,0,0,1,4,14.71l.33-.18V14.2l-.26-.1a.32.32,0,0,1-.25-.33V12.61a.37.37,0,0,1,.36-.37l1.09,0a3,3,0,0,1,0-1,5.7,5.7,0,0,1,.47-1.12l-.07-.4c0-.11,0-.18.07-.26a.34.34,0,0,1,.25-.11h.58a.28.28,0,0,1,.19.08l1.41.9h.69a.33.33,0,0,1,.25.11.3.3,0,0,1,.11.26l-.07,1.12a.36.36,0,0,1-.11.26h.44a.28.28,0,0,1,.25.11l.18.21.15-.11.25-.5a.39.39,0,0,1,.33-.19h.94v-.18l-.9-1.56a.3.3,0,0,1,0-.18V7.38A.36.36,0,0,1,11.07,7h7.59a.36.36,0,0,1,.36.36V9.56a.34.34,0,0,1-.07.18L18,11.26v.22H19a.39.39,0,0,1,.32.18l.26.51.14.11.18-.22a.36.36,0,0,1,.26-.11h.43a.33.33,0,0,1-.11-.25l-.07-1.13a.34.34,0,0,1,.11-.25.36.36,0,0,1,.26-.11h.65l1.42-.91c.07,0,.1-.07.18-.07h.58a.34.34,0,0,1,.25.11.23.23,0,0,1,.07.25l-.07.4a5.83,5.83,0,0,1,.47,1.13,3,3,0,0,1,0,1l1.09,0a.37.37,0,0,1,.36.37V13.7a.34.34,0,0,1-.22.32l-.32.11v.33l.32.18a.37.37,0,0,1,.19.33v1a.46.46,0,0,1-.15.29l-.87.62.76.21a.42.42,0,0,1,.26.33,4.89,4.89,0,0,1-.08,1.09,4,4,0,0,1-.21.8h1.3V5.82h-24V19.36Z" transform="translate(-0.58 -0.95)"/><path class="cls-2" d="M19.13,18s.07,0,.11-.08a.35.35,0,0,1-.14-.25V16.64l-.37.29a.5.5,0,0,1-.4,0L18,16.78v2.65h.69A1.41,1.41,0,0,1,19.13,18Zm4.69,8.6a.37.37,0,0,1-.37-.36V24a.85.85,0,0,0-.25-.54.87.87,0,0,0-.73-.26.92.92,0,0,0-.91.84v2.28a.32.32,0,0,1-.1.26.36.36,0,0,1-.26.11H19.13a.36.36,0,0,1-.36-.37V24a.89.89,0,0,0-.25-.55.86.86,0,0,0-.73-.25,1.25,1.25,0,0,0-.62.22l1.71,8.75c2.4-1.06,5.26-2.84,6.82-5.52Zm-5.59,5.74-2.4-12.27H13.9L11.47,32.36s0,0,0,.07a35.55,35.55,0,0,0,3.41,1.16,28.32,28.32,0,0,0,3.41-1.16s0,0,0-.07Zm-5.74-9a.86.86,0,0,0-.62-.22h0a.83.83,0,0,0-.69.29.86.86,0,0,0-.26.55V26.3a.36.36,0,0,1-.36.36H8.46a.36.36,0,0,1-.26-.11.31.31,0,0,1-.1-.25V24a.92.92,0,0,0-.91-.84h0a.85.85,0,0,0-.69.29.89.89,0,0,0-.25.55V26.3a.36.36,0,0,1-.36.36H4c1.52,2.69,4.36,4.43,6.79,5.52l1.67-8.79Z" transform="translate(-0.58 -0.95)"/><path class="cls-2" d="M26.83,20.09H16.56l.5,2.58a1.65,1.65,0,0,1,.73-.19A1.67,1.67,0,0,1,19,23a1.56,1.56,0,0,1,.48,1V25.9h1.38v-2a1.61,1.61,0,0,1,1.59-1.49,1.7,1.7,0,0,1,1.24.47,1.55,1.55,0,0,1,.47,1v1.92H26.1a8.57,8.57,0,0,0,.77-3.56ZM5.55,25.93V24A1.44,1.44,0,0,1,6,23a1.68,1.68,0,0,1,2.83,1v2h1.38V24a1.47,1.47,0,0,1,.47-1,1.68,1.68,0,0,1,1.23-.47,1.64,1.64,0,0,1,.73.18l.51-2.58H2.87v2.21a8.4,8.4,0,0,0,.76,3.56Zm.84-7.29H7a.4.4,0,0,1,.07.21V19c0,.11,0,.25,0,.36H5c-.29-.18-.43-1-.43-1.6l.87-.25a.35.35,0,0,0,.25-.33v-.32a.44.44,0,0,0-.14-.29l-1-.73v-.58l.33-.18a.4.4,0,0,0,.18-.33V14a.36.36,0,0,0-.22-.33l-.33-.11V13h.91l.44.73v1l-.29.94a.29.29,0,0,0,.07.33.32.32,0,0,0,.29.14h.25a.36.36,0,0,0,.37-.29,8,8,0,0,1,.18-.8c.07-.14.32-.47.47-.69a.32.32,0,0,0,0-.43L6,12.5a3.05,3.05,0,0,1,0-1.05,4.12,4.12,0,0,1,.43-1c0-.07.08-.15,0-.22l0-.11h.08L8,11a.34.34,0,0,0,.18.07h.44l0,.4-.47.18a.44.44,0,0,0-.22.33v.36a.38.38,0,0,0,.37.37H9.4l.33.32a.33.33,0,0,0,.47,0l.58-.47.19-.4h.72v1.23l-1.38.47a.89.89,0,0,0-.11.51c0,.11,0,.15.15.22a3.53,3.53,0,0,0,.47.33l.36-.36.48.07v1.2l-.48.32-1.49-1a.35.35,0,0,0-.47.08L9,15.55A.35.35,0,0,0,9,16l.84.8v.65L9,17.84a.34.34,0,0,0-.22.32v.15a.36.36,0,0,0,.36.36h1a.73.73,0,0,1,0,.73H7.88a.8.8,0,0,1-.15-.4v-.15a3.07,3.07,0,0,1,.07-.58l.55-.69a.56.56,0,0,0,.07-.18l0-.33a.59.59,0,0,0-.15-.32c-.07-.11-.22-.08-.32,0l-.88.36a.4.4,0,0,0-.21.26l-.08.36-.5.15a.35.35,0,0,0-.26.32v.15a.31.31,0,0,0,.33.33Zm16.92,0h-.58a.54.54,0,0,0-.08.21V19c0,.11,0,.25,0,.36h2c.29-.18.43-1,.43-1.6l-.87-.25a.34.34,0,0,1-.25-.33v-.32a.44.44,0,0,1,.14-.29l1-.69v-.59l-.32-.18a.34.34,0,0,1-.18-.32V14a.34.34,0,0,1,.21-.32l.33-.11V13h-.91l-.43.72v1l.29.95A.29.29,0,0,1,24,16a.31.31,0,0,1-.29.15h-.25a.35.35,0,0,1-.36-.29c0-.15-.11-.62-.18-.8s-.33-.47-.48-.69a.32.32,0,0,1,0-.43l1.2-1.38a3.39,3.39,0,0,0,0-1.06,3.86,3.86,0,0,0-.43-1c0-.08-.08-.15,0-.22l0-.11h-.08l-1.41.91c-.08,0-.11.07-.18.07h-.4l0,.51.47.18a.34.34,0,0,1,.22.33v.36a.36.36,0,0,1-.36.36h-1.2l-.33.33a.35.35,0,0,1-.47,0L19,12.75l-.18-.4H18v1.24l1.38.47a.76.76,0,0,1,.11.51c0,.11,0,.14-.14.22a3.37,3.37,0,0,1-.47.32l-.37-.36H18V16l.48.29,1.49-1a.36.36,0,0,1,.47.07l.21.3a.34.34,0,0,1,0,.47l-.84.76v.65l.87.37a.34.34,0,0,1,.22.32v.15a.36.36,0,0,1-.36.36h-1a.73.73,0,0,0,0,.73h2.36A.8.8,0,0,0,22,19v-.15a2.42,2.42,0,0,0-.07-.58l-.55-.69a1,1,0,0,1-.07-.18l0-.36a.67.67,0,0,1,.14-.33.39.39,0,0,1,.33,0l.87.37a.37.37,0,0,1,.22.25l.07.36.51.15a.34.34,0,0,1,.25.33v.14A.34.34,0,0,1,23.31,18.64Z" transform="translate(-0.58 -0.95)"/><path class="cls-1" d="M78.46,15.55A2.45,2.45,0,0,1,80.89,13a2.57,2.57,0,0,1,1.82.65l-.37.4a2.06,2.06,0,0,0-1.49-.58,1.92,1.92,0,0,0-1.85,2v0a1.89,1.89,0,0,0,1.93,2,2.38,2.38,0,0,0,1.41-.48V15.84H80.85v-.47h2v1.92a2.89,2.89,0,0,1-2,.73,2.36,2.36,0,0,1-2.43-2.47Zm10.64,0a1.91,1.91,0,1,0-3.82,0v0a1.91,1.91,0,1,0,3.82,0Zm-4.4,0A2.48,2.48,0,0,1,87.17,13a2.43,2.43,0,0,1,2.47,2.5v0a2.47,2.47,0,1,1-4.94,0Zm9,.18H92.18v1.71h1.64c.72,0,1.19-.33,1.19-.87S94.54,15.73,93.71,15.73Zm1-1.34c0-.48-.4-.8-1-.8H92.18v1.67h1.45c.62,0,1.09-.29,1.09-.87ZM91.6,13.08h2.07a1.69,1.69,0,0,1,1.27.44,1.2,1.2,0,0,1,.33.76v0a1.18,1.18,0,0,1-.77,1.13c.58.18,1.06.51,1.06,1.16v0c0,.83-.69,1.3-1.78,1.3H91.64Zm7.28,0h-.55v4.86h.55Zm2.25,0h3.52v.51h-3v1.67h2.65v.47h-2.65v1.74h3v.47h-3.56Zm7.41,2.51c.72,0,1.23-.37,1.23-1v0c0-.62-.47-.94-1.23-.94h-1.49v2Zm-2.07-2.51h2.1a2,2,0,0,1,1.38.47,1.37,1.37,0,0,1,.36.95v0A1.46,1.46,0,0,1,109,16l1.49,2h-.69l-1.42-1.89h-1.34V18h-.55Zm5.84,0h.51L115.87,17V13.08h.54v4.86H116l-3.12-4v4h-.55Zm10.46,2.47a1.94,1.94,0,0,0-1.93-2,1.9,1.9,0,0,0-1.89,2v0a1.91,1.91,0,1,0,3.82,0Zm-4.4,0A2.48,2.48,0,0,1,120.84,13a2.43,2.43,0,0,1,2.47,2.5v0a2.47,2.47,0,1,1-4.94,0Zm10-2v3.85h1.16a1.89,1.89,0,0,0,2-1.89v0a1.89,1.89,0,0,0-2-1.92Zm-.55-.51h1.71a2.41,2.41,0,0,1,2.57,2.4v0a2.44,2.44,0,0,1-2.57,2.43h-1.71Zm6,0h3.52v.51h-3v1.67H137v.47h-2.66v1.74h3v.47h-3.56V13.08Zm7.92,0h.54v4.39H145v.47h-3.26Zm8,3.09-1.09-2.47-1.09,2.47Zm-1.38-3.09h.51l2.21,4.9h-.58L150,16.71h-2.65L146.73,18h-.58l2.25-4.9ZM79.24,23.86a2.48,2.48,0,0,1,2.54-2.54,2.63,2.63,0,0,1,1.92.76l-.69.77a1.65,1.65,0,0,0-1.23-.55,1.47,1.47,0,0,0-1.42,1.53v0a1.45,1.45,0,0,0,1.42,1.53,1.64,1.64,0,0,0,1.27-.58l.69.69a2.5,2.5,0,0,1-2,.87A2.47,2.47,0,0,1,79.24,23.86Zm6.38-2.43H84.57V26.3h1.05Zm1.28,2.8V21.47h1v2.72c0,.8.4,1.2,1,1.2s1.06-.4,1.06-1.16V21.47h1v2.72A2,2,0,0,1,89,26.37,1.91,1.91,0,0,1,86.9,24.23Zm7.37,1.09a1.46,1.46,0,0,0,0-2.91h-.84v2.94Zm-1.93-3.89h1.89a2.42,2.42,0,0,1,2.58,2.4v0a2.45,2.45,0,0,1-2.58,2.43H92.34Zm8,2.83-.65-1.56L99,24.26ZM99.2,21.39h1l2.07,4.91h-1.12l-.44-1.09H98.62l-.43,1.09H97.1l2.1-4.91Zm5.74,3.93a1.46,1.46,0,0,0,0-2.91h-.83v2.94ZM103,21.43h1.88a2.42,2.42,0,0,1,2.58,2.4v0a2.45,2.45,0,0,1-2.58,2.44H103Zm9.51,3.89a1.46,1.46,0,0,0,0-2.91h-.84v2.94Zm-1.93-3.89h1.89a2.42,2.42,0,0,1,2.58,2.4v0a2.44,2.44,0,0,1-2.58,2.43H110.6Zm5.52,0h3.67v.94h-2.61v1h2.28v.95h-2.28v1.05h2.65v.95h-3.71Zm6.79,0h1.16l1.28,2,1.27-2h1.16V26.3h-1.06V23.1l-1.37,2.07h0l-1.34-2V26.3h-1.06Zm8.17-1.6.91.4-.91.84h-.8Zm-2,1.6h3.66v.94H130.1v1h2.29v.95H130.1v1h2.65v.94h-3.7Zm6.1,2.4-1.64-2.4h1.24l1,1.56,1.06-1.56H138l-1.64,2.36,1.71,2.51h-1.24l-1.12-1.67-1.09,1.67h-1.2l1.71-2.47Zm4.79-2.4h-1.05V26.3h1.05ZM141,23.86a2.48,2.48,0,0,1,2.54-2.54,2.66,2.66,0,0,1,1.93.76l-.69.77a1.69,1.69,0,0,0-1.24-.55,1.46,1.46,0,0,0-1.41,1.53v0a1.44,1.44,0,0,0,1.41,1.53,1.63,1.63,0,0,0,1.27-.58l.69.69a2.57,2.57,0,0,1-4.5-1.64Zm9,0a1.47,1.47,0,1,0-2.94,0v0a1.47,1.47,0,1,0,2.94,0Zm-4,0a2.58,2.58,0,0,1,5.16,0v0a2.58,2.58,0,0,1-5.16,0Z" transform="translate(-0.58 -0.95)"/><path class="cls-3" d="M161.44,3.61V36.4" transform="translate(-0.58 -0.95)"/><path class="cls-4" d="M175.12,18.48v-1h-2.69v-1h2.34v-1h-2.34v-1h2.66v-1h-3.74v5ZM179.75,17v0c0-.86-.56-1.22-1.57-1.49s-1.07-.32-1.07-.65h0c0-.24.22-.44.64-.44a2.39,2.39,0,0,1,1.29.49l.56-.82a2.85,2.85,0,0,0-1.84-.63,1.56,1.56,0,0,0-1.74,1.5h0c0,1,.65,1.26,1.65,1.52.83.21,1,.35,1,.63h0c0,.29-.27.47-.72.47a2.26,2.26,0,0,1-1.48-.6l-.65.77a3.19,3.19,0,0,0,2.11.8c1.07,0,1.82-.56,1.82-1.54Zm5.38.66-.69-.7a1.78,1.78,0,0,1-1.31.58A1.48,1.48,0,0,1,181.69,16h0a1.48,1.48,0,0,1,1.44-1.55,1.85,1.85,0,0,1,1.27.56l.7-.8a2.57,2.57,0,0,0-2-.76A2.52,2.52,0,0,0,180.55,16v0a2.61,2.61,0,0,0,4.58,1.66Zm5.19-1.36v-2.8h-1.09v2.84c0,.79-.4,1.2-1.07,1.2s-1.07-.42-1.07-1.23V13.51H186v2.84a2,2,0,0,0,2.15,2.2A2,2,0,0,0,190.32,16.31Zm5,2.17v-1h-2.7v-1h2.34v-1h-2.34v-1h2.66v-1h-3.74v5Zm4.61,0v-1h-2.48v-4h-1.09v5Zm5.72,0-2.12-5h-1l-2.13,5h1.12l.45-1.12H204l.45,1.12Zm-2-2.08h-1.32l.66-1.61ZM210,17v0c0-.86-.57-1.22-1.57-1.49s-1.07-.32-1.07-.65h0c0-.24.22-.43.63-.43a2.29,2.29,0,0,1,1.29.49l.57-.83a2.85,2.85,0,0,0-1.84-.63,1.55,1.55,0,0,0-1.74,1.5h0c0,1,.65,1.26,1.65,1.52.83.21,1,.35,1,.63h0c0,.29-.27.47-.72.47a2.24,2.24,0,0,1-1.48-.6l-.65.77a3.15,3.15,0,0,0,2.11.8c1.07,0,1.82-.56,1.82-1.54Zm-34.06,8h0a2.48,2.48,0,0,0-2.64-2.47h-1.93v5h1.93A2.49,2.49,0,0,0,175.92,25Zm-1.14,0a1.42,1.42,0,0,1-1.5,1.48h-.84v-3h.84a1.43,1.43,0,0,1,1.5,1.49Zm6,2.47v-1h-2.69v-1h2.34v-1h-2.34v-1h2.66v-1H177v5Zm7.6-.81-.7-.7a1.76,1.76,0,0,1-1.3.58A1.48,1.48,0,0,1,184.9,25h0a1.47,1.47,0,0,1,1.44-1.55,1.85,1.85,0,0,1,1.27.56l.69-.8a2.56,2.56,0,0,0-2-.76A2.52,2.52,0,0,0,183.76,25v0a2.61,2.61,0,0,0,4.58,1.66Zm6-1.68h0a2.64,2.64,0,0,0-5.27,0v0a2.64,2.64,0,0,0,5.27,0Zm-1.14,0a1.48,1.48,0,0,1-1.49,1.54,1.51,1.51,0,0,1-1.5-1.56h0a1.49,1.49,0,0,1,1.49-1.55A1.51,1.51,0,0,1,193.2,25Zm-1.06-2.89.91-.85-.93-.4-.8,1.25ZM200,25h0a2.47,2.47,0,0,0-2.63-2.47h-1.94v5h1.94A2.48,2.48,0,0,0,200,25Zm-1.14,0a1.41,1.41,0,0,1-1.49,1.48h-.85v-3h.85A1.42,1.42,0,0,1,198.81,25Zm3.33,2.47v-5h-1.09v5Zm5.82-.71V24.62H205.8v.94h1.1v.71a1.72,1.72,0,0,1-1,.3,1.49,1.49,0,0,1-1.5-1.58h0a1.5,1.5,0,0,1,1.43-1.55,1.81,1.81,0,0,1,1.29.51l.69-.83a2.72,2.72,0,0,0-1.95-.68,2.54,2.54,0,0,0-2.6,2.56v0a2.48,2.48,0,0,0,2.61,2.55,3.18,3.18,0,0,0,2.12-.79ZM214.14,25h0a2.64,2.64,0,0,0-5.28,0v0a2.54,2.54,0,0,0,2.63,2.55A2.57,2.57,0,0,0,214.14,25ZM213,25a1.48,1.48,0,0,1-1.48,1.54A1.51,1.51,0,0,1,210,25h0a1.49,1.49,0,0,1,1.49-1.55A1.51,1.51,0,0,1,213,25Z" transform="translate(-0.58 -0.95)"/></svg>